<svg width="330" height="720" viewBox="0 0 330 720" fill="none" xmlns="http://www.w3.org/2000/svg">
<mask id="mask0_80_223" style="mask-type:alpha" maskUnits="userSpaceOnUse" x="0" y="0" width="330" height="720">
<mask id="path-1-inside-1_80_223" fill="white">
<path d="M0 0H330V720H0V0Z"/>
</mask>
<path d="M0 0H330V720H0V0Z" fill="black"/>
<path d="M0 1H330V-1H0V1Z" fill="#6B20CD" mask="url(#path-1-inside-1_80_223)"/>
</mask>
<g mask="url(#mask0_80_223)">
<path d="M-837.05 184.654C-894.117 138.343 -962.795 131.911 -990 134.484V598.24C-924.193 605.958 -837.907 553 -802.989 525.557C-746.95 489.022 -683.671 481.175 -659.036 481.818C-588.088 481.304 -534.362 455.875 -516.368 443.226C-434.109 380.448 -354.849 373.759 -325.501 378.261C-297.739 381.349 -149.416 372.687 -78.7244 367.97H330V364.11H2.89197L-299.795 353.819C-389.252 358.965 -447.176 333.236 -464.956 319.729C-535.005 268.272 -591.558 253.478 -649.396 250.905C-707.235 248.332 -765.716 242.544 -837.05 184.654Z" fill="url(#paint0_linear_80_223)"/>
<path d="M-990.565 128.511L-996 129.025V134.484V598.24V603.577L-990.699 604.199C-956.139 608.252 -916.886 596.388 -882.405 580.536C-847.903 564.674 -817.309 544.413 -799.493 530.44C-744.739 494.831 -682.86 487.198 -659.193 487.816L-659.093 487.819L-658.992 487.818C-586.781 487.294 -531.874 461.461 -512.917 448.134L-512.821 448.067L-512.728 447.995C-431.699 386.156 -354.067 379.949 -326.411 384.192L-326.288 384.211L-326.165 384.224C-318.745 385.049 -303.843 385.066 -285.028 384.617C-266.045 384.164 -242.638 383.221 -217.924 382.035C-168.581 379.668 -113.901 376.329 -78.5244 373.97H330H336V367.97V364.11V358.11H330H2.99396L-299.592 347.823L-299.866 347.813L-300.14 347.829C-388.474 352.91 -444.906 327.426 -461.327 314.951L-461.365 314.922L-461.404 314.893C-532.443 262.709 -590.148 247.535 -649.13 244.911C-706.421 242.363 -763.384 236.709 -833.269 179.996C-891.834 132.469 -962.19 125.827 -990.565 128.511Z" stroke="#8342D8" stroke-opacity="0.1" stroke-width="12"/>
</g>
<defs>
<linearGradient id="paint0_linear_80_223" x1="-921.5" y1="391.5" x2="-426" y2="403.5" gradientUnits="userSpaceOnUse">
<stop stop-color="#6B20CD"/>
<stop offset="1" stop-color="#69429C"/>
</linearGradient>
</defs>
</svg>
