<svg width="420" height="320" viewBox="0 0 420 320" fill="none" xmlns="http://www.w3.org/2000/svg">
<mask id="mask0_80_223" style="mask-type:alpha" maskUnits="userSpaceOnUse" x="0" y="0" width="420" height="320">
<mask id="path-1-inside-1_80_223" fill="white">
<path d="M420 0L420 320L-4.21375e-05 320L-3.05176e-05 -2.20996e-05L420 0Z"/>
</mask>
<path d="M420 0L420 320L-4.21375e-05 320L-3.05176e-05 -2.20996e-05L420 0Z" fill="black"/>
<path d="M419 -5.26181e-08L419 320L421 320L421 5.26181e-08L419 -5.26181e-08Z" fill="#6B20CD" mask="url(#path-1-inside-1_80_223)"/>
</mask>
<g mask="url(#mask0_80_223)">
<path d="M312.285 -811.685C339.3 -867.022 343.052 -933.619 341.551 -960L71.0269 -960C66.5244 -896.187 97.4165 -812.515 113.425 -778.656C134.737 -724.315 139.315 -662.954 138.939 -639.065C139.24 -570.267 154.073 -518.169 161.452 -500.721C198.072 -420.954 201.974 -344.096 199.348 -315.638C197.547 -288.717 202.6 -144.888 205.351 -76.3388L205.351 320L207.602 320L207.602 2.80431L213.606 -290.711C210.604 -377.457 225.612 -433.625 233.492 -450.867C263.508 -518.793 272.138 -573.632 273.639 -629.718C275.14 -685.803 278.516 -742.512 312.285 -811.685Z" fill="url(#paint0_linear_80_223)"/>
<path d="M347.542 -960.341L347.22 -966L341.551 -966L71.0269 -966L65.4354 -966L65.0418 -960.422C62.7206 -927.524 69.5162 -889.89 78.7515 -856.496C87.9743 -823.147 99.7697 -793.535 107.913 -776.278C128.793 -722.923 133.307 -662.506 132.94 -639.159L132.939 -639.099L132.939 -639.039C133.243 -569.518 148.211 -516.627 155.926 -498.384L155.961 -498.3L155.999 -498.217C192.144 -419.487 195.912 -343.693 193.373 -316.189L193.366 -316.114L193.361 -316.038C192.436 -302.213 193.268 -259.148 194.645 -211.426C196.026 -163.562 197.975 -110.512 199.351 -76.2183L199.351 320L199.351 326L205.351 326L207.602 326L213.602 326L213.602 320L213.602 2.86584L219.604 -290.588L219.608 -290.753L219.602 -290.918C216.621 -377.063 231.573 -432.234 238.949 -448.373L238.964 -448.407L238.98 -448.441C269.362 -517.194 278.119 -572.823 279.637 -629.557C281.131 -685.409 284.486 -741.063 317.677 -809.052C345.295 -865.627 349.077 -933.349 347.542 -960.341Z" stroke="#8342D8" stroke-opacity="0.1" stroke-width="12"/>
</g>
<defs>
<linearGradient id="paint0_linear_80_223" x1="191.625" y1="-893.576" x2="172.302" y2="-413.587" gradientUnits="userSpaceOnUse">
<stop stop-color="#6B20CD"/>
<stop offset="1" stop-color="#69429C"/>
</linearGradient>
</defs>
</svg>
