<svg width="720" height="320" viewBox="0 0 720 320" fill="none" xmlns="http://www.w3.org/2000/svg">
<mask id="mask0_80_223" style="mask-type:alpha" maskUnits="userSpaceOnUse" x="0" y="0" width="720" height="320">
<mask id="path-1-inside-1_80_223" fill="white">
<path d="M720 0L720 320L-1.44248e-05 320L0 -3.05185e-05L720 0Z"/>
</mask>
<path d="M720 0L720 320L-1.44248e-05 320L0 -3.05185e-05L720 0Z" fill="black"/>
<path d="M719 -4.23868e-08L719 320L721 320L721 4.23868e-08L719 -4.23868e-08Z" fill="#6B20CD" mask="url(#path-1-inside-1_80_223)"/>
</mask>
<g mask="url(#mask0_80_223)">
<path d="M535.346 -811.685C581.657 -867.022 588.089 -933.619 585.516 -960L121.76 -960C114.042 -896.187 167 -812.515 194.443 -778.656C230.978 -724.315 238.825 -662.954 238.182 -639.065C238.696 -570.267 264.125 -518.169 276.774 -500.721C339.552 -420.954 346.241 -344.096 341.739 -315.638C338.651 -288.717 347.313 -144.888 352.03 -76.3388L352.03 320L355.889 320L355.889 2.80431L366.181 -290.711C361.035 -377.457 386.764 -433.625 400.271 -450.867C451.728 -518.793 466.522 -573.632 469.095 -629.718C471.668 -685.803 477.456 -742.512 535.346 -811.685Z" fill="url(#paint0_linear_80_223)"/>
<path d="M591.488 -960.582L590.959 -966L585.516 -966L121.76 -966L116.442 -966L115.804 -960.721C111.738 -927.106 123.638 -888.97 139.494 -855.525C155.364 -822.052 175.632 -792.374 189.611 -775.089C225.184 -722.045 232.8 -662.111 232.184 -639.227L232.181 -639.124L232.182 -639.02C232.706 -568.915 258.568 -515.612 271.917 -497.199L271.986 -497.103L272.059 -497.01C333.87 -418.473 340.038 -343.28 335.813 -316.575L335.793 -316.449L335.778 -316.321C334.949 -309.098 334.934 -294.621 335.383 -276.382C335.836 -257.97 336.78 -235.269 337.965 -211.302C340.332 -163.458 343.671 -110.44 346.03 -76.1328L346.03 320L346.03 326L352.03 326L355.889 326L361.889 326L361.889 320L361.889 2.90972L372.177 -290.501L372.187 -290.784L372.17 -291.066C367.094 -376.644 392.555 -431.289 404.994 -447.166L405.024 -447.205L405.054 -447.244C457.261 -516.16 472.461 -572.173 475.089 -629.443C477.635 -684.951 483.275 -740.116 539.947 -807.834C587.514 -864.673 594.179 -932.983 591.488 -960.582Z" stroke="#8342D8" stroke-opacity="0.1" stroke-width="12"/>
</g>
<defs>
<linearGradient id="paint0_linear_80_223" x1="328.5" y1="-893.576" x2="317.216" y2="-413.074" gradientUnits="userSpaceOnUse">
<stop stop-color="#6B20CD"/>
<stop offset="1" stop-color="#69429C"/>
</linearGradient>
</defs>
</svg>
