<svg width="31" height="36" viewBox="0 0 31 36" fill="none" xmlns="http://www.w3.org/2000/svg">
<path fill-rule="evenodd" clip-rule="evenodd" d="M11.545 2.29903C9.46083 3.38046 7.74792 4.29353 7.75443 4.33238C7.75443 4.42952 12.7629 6.94854 12.9388 6.94207C13.0169 6.94207 13.6031 6.67009 14.2414 6.34631L15.4007 5.75702L16.6642 6.40459L17.9277 7.05215L19.9988 6.12613C23.112 4.73387 23.4377 4.57846 23.3856 4.53313C23.3205 4.46189 22.2002 3.86614 19.1652 2.27961C17.6998 1.51548 16.2799 0.757829 16.0064 0.60889C15.7328 0.453474 15.4723 0.336914 15.4267 0.336914C15.3811 0.336914 13.6291 1.2176 11.545 2.29903ZM2.39425 7.0133L0.218916 8.12711V13.0227C0.218916 15.7166 0.244968 17.9183 0.284046 17.9183C0.31661 17.9183 1.38474 17.4585 2.66128 16.8951L4.97339 15.872V10.7109L6.10014 11.3196C6.97287 11.7923 7.8391 12.2586 8.71184 12.7313L10.1968 13.5278L10.8546 13.2299C11.2714 13.0421 11.6818 12.8543 12.0921 12.6665C12.4112 12.5176 13.1928 12.1679 13.831 11.8895C14.4693 11.611 15.0555 11.3261 15.1402 11.2613C15.2509 11.1771 13.8962 10.4324 10.1317 8.50917C7.29201 7.05863 4.8757 5.88006 4.76497 5.88654C4.65425 5.89301 3.58613 6.39811 2.39425 7.0133ZM23.7698 7.32413C22.2914 7.99112 21.08 8.56098 21.08 8.59335C21.08 8.62573 21.8876 9.10493 22.8711 9.65536C23.861 10.2058 24.6621 10.685 24.6621 10.7238C24.6621 10.7627 23.7894 11.1836 22.7213 11.6563C21.6531 12.1355 18.9568 13.3465 16.7228 14.3502L9.25242 17.7111C7.37017 18.5529 5.67679 19.317 5.48792 19.4012C1.65177 21.1302 0.590156 21.6094 0.44687 21.6936C0.303584 21.7778 0.271019 22.257 0.244967 24.6724L0.212402 27.554L2.15327 28.5383L4.09414 29.5226L6.79051 28.3117C8.26896 27.6447 9.48689 27.0683 9.48689 27.023C9.48689 26.9777 9.21334 26.8028 8.88118 26.628C8.54902 26.4532 7.85864 26.0646 7.34411 25.7667C6.8361 25.4689 6.32809 25.1969 6.21737 25.158C6.10665 25.1192 6.01547 25.0609 6.01547 25.0156C6.01547 24.9767 7.20083 24.4133 8.65322 23.7722C11.4668 22.5224 13.6161 21.5576 18.2338 19.4789C20.2984 18.5529 22.363 17.6204 24.4342 16.6944C26.2513 15.8784 28.3615 14.9265 29.1235 14.5768L30.5108 13.9422L30.5433 11.0282L30.5759 8.11415L28.609 7.11691C27.5278 6.56648 26.5965 6.11318 26.5509 6.11318C26.4988 6.11318 25.2483 6.66361 23.7698 7.32413ZM29.9897 17.8406C29.6967 17.983 29.1235 18.2485 28.7132 18.4298C28.3029 18.6112 27.5213 18.9608 26.9807 19.2069L25.9973 19.6537L25.9777 22.2116C25.9647 23.6168 25.9126 24.763 25.8605 24.7565C25.7433 24.7371 23.9001 23.7982 22.0439 22.8074C20.7022 22.0951 20.6176 22.0627 20.3049 22.2181C20.1226 22.3088 19.0349 22.7944 17.8886 23.2931C16.7423 23.7982 15.7654 24.2385 15.7198 24.2838C15.6742 24.3227 17.9798 25.566 20.852 27.0489L26.0624 29.7428L28.2899 28.5966C29.5143 27.9685 30.5564 27.3921 30.602 27.3209C30.7127 27.159 30.6997 17.5621 30.5955 17.5751C30.5499 17.5815 30.2763 17.6981 29.9897 17.8406ZM17.6542 29.1017C17.2699 29.2636 16.8791 29.432 16.4949 29.6003C15.329 30.0989 15.557 30.1184 14.1697 29.432C13.2449 28.9722 12.8476 28.8362 12.6717 28.901C12.5415 28.9528 11.4278 29.4514 10.1903 30.0083C8.95933 30.5652 7.90423 31.025 7.85213 31.025C7.33109 31.025 8.19732 31.5365 11.5189 33.2008L15.4137 35.1564L17.055 34.3534C17.9538 33.9131 19.7774 33.0259 21.093 32.3848C22.4151 31.7438 23.4768 31.2063 23.4572 31.1804C23.4377 31.161 22.3305 30.5976 20.9953 29.9241L18.5725 28.7067L17.6542 29.1017Z" fill="white"/>
</svg>
