<svg width="24" height="26" viewBox="0 0 24 26" fill="none" xmlns="http://www.w3.org/2000/svg">
<path fill-rule="evenodd" clip-rule="evenodd" d="M9.22741 1.94329C7.70148 2.73507 6.44736 3.40358 6.45213 3.43203C6.45213 3.50314 10.1191 5.34746 10.2479 5.34272C10.3051 5.34272 10.7343 5.14359 11.2016 4.90653L12.0504 4.47509L12.9755 4.9492L13.9006 5.42332L15.417 4.74533C17.6963 3.72598 17.9347 3.61219 17.8966 3.579C17.8489 3.52685 17.0287 3.09066 14.8066 1.92907C13.7337 1.36961 12.6941 0.81489 12.4938 0.705843C12.2936 0.592054 12.1028 0.506714 12.0694 0.506714C12.0361 0.506714 10.7533 1.15151 9.22741 1.94329ZM2.52763 5.39487L0.934945 6.21036V9.79469C0.934945 11.767 0.954019 13.379 0.98263 13.379C1.00647 13.379 1.78851 13.0424 2.72314 12.6299L4.41597 11.8808V8.10209L5.24092 8.54776C5.8799 8.89387 6.51412 9.23523 7.1531 9.58134L8.24032 10.1645L8.72194 9.94641C9.02713 9.80892 9.32755 9.67142 9.62796 9.53393C9.86162 9.42488 10.4338 9.16886 10.9012 8.96498C11.3685 8.76111 11.7976 8.5525 11.8596 8.50509C11.9407 8.44346 10.9488 7.89822 8.19264 6.49009C6.11356 5.42806 4.34444 4.56517 4.26337 4.56991C4.18231 4.57465 3.40027 4.94446 2.52763 5.39487ZM18.1779 5.62245C17.0955 6.11079 16.2085 6.52802 16.2085 6.55172C16.2085 6.57543 16.7998 6.92628 17.5199 7.32928C18.2447 7.73228 18.8312 8.08312 18.8312 8.11157C18.8312 8.14002 18.1922 8.4482 17.4102 8.7943C16.6282 9.14515 14.654 10.0318 13.0184 10.7666L7.54889 13.2273C6.17078 13.8437 4.93097 14.4031 4.79268 14.4648C1.98402 15.7307 1.20675 16.0815 1.10184 16.1431C0.996935 16.2048 0.973092 16.5556 0.954018 18.3241L0.930176 20.4339L2.3512 21.1546L3.77222 21.8752L5.74638 20.9886C6.82884 20.5003 7.72055 20.0783 7.72055 20.0451C7.72055 20.0119 7.52028 19.8839 7.27708 19.7559C7.03389 19.6279 6.52842 19.3434 6.15171 19.1253C5.77976 18.9073 5.40782 18.7081 5.32676 18.6797C5.24569 18.6512 5.17893 18.6086 5.17893 18.5754C5.17893 18.5469 6.0468 18.1344 7.11018 17.6651C9.17019 16.75 10.7438 16.0436 14.1247 14.5217C15.6363 13.8437 17.1479 13.1609 18.6643 12.4829C19.9947 11.8856 21.5397 11.1886 22.0977 10.9326L23.1133 10.4679L23.1372 8.33441L23.161 6.20088L21.7209 5.47073C20.9294 5.06773 20.2475 4.73585 20.2141 4.73585C20.1759 4.73585 19.2604 5.13885 18.1779 5.62245ZM22.7319 13.3221C22.5173 13.4264 22.0977 13.6208 21.7972 13.7536C21.4968 13.8863 20.9246 14.1424 20.5288 14.3225L19.8088 14.6497L19.7945 16.5224C19.7849 17.5513 19.7468 18.3905 19.7086 18.3857C19.6228 18.3715 18.2733 17.684 16.9143 16.9586C15.932 16.4371 15.87 16.4134 15.6411 16.5272C15.5076 16.5936 14.7112 16.9491 13.8719 17.3142C13.0327 17.684 12.3174 18.0064 12.284 18.0396C12.2507 18.0681 13.9387 18.9784 16.0416 20.0641L19.8564 22.0364L21.4873 21.1972C22.3838 20.7373 23.1467 20.3154 23.1801 20.2632C23.2612 20.1447 23.2516 13.1183 23.1753 13.1277C23.142 13.1325 22.9417 13.2178 22.7319 13.3221ZM13.7003 21.5671C13.4189 21.6856 13.1328 21.8089 12.8515 21.9321C11.9979 22.2972 12.1648 22.3114 11.1491 21.8089C10.472 21.4722 10.1811 21.3727 10.0524 21.4201C9.95699 21.458 9.14157 21.8231 8.23555 22.2308C7.3343 22.6386 6.5618 22.9752 6.52365 22.9752C6.14217 22.9752 6.77639 23.3497 9.20833 24.5682L12.0599 26.0001L13.2616 25.4122C13.9196 25.0898 15.2548 24.4402 16.2181 23.9708C17.1861 23.5015 17.9633 23.1079 17.949 23.089C17.9347 23.0748 17.1241 22.6623 16.1465 22.1692L14.3726 21.2778L13.7003 21.5671Z" fill="white"/>
</svg>
