<svg width="26" height="26" viewBox="0 0 26 26" fill="none" xmlns="http://www.w3.org/2000/svg">
<g clip-path="url(#clip0_32_1288)">
<g clip-path="url(#clip1_32_1288)">
<path d="M6.75769 12.2896C6.75769 11.7459 7.19952 11.2992 7.73643 11.2992H9.38725C9.92509 11.2992 10.3856 11.7459 10.3856 12.3094V18.6035C10.5776 18.5451 10.8078 18.4866 11.0772 18.4282C11.4417 18.3311 11.7111 18.0013 11.7111 17.6121V9.80274C11.7111 9.25899 12.1529 8.79252 12.7094 8.79252H14.3602C14.898 8.79252 15.3585 9.2392 15.3585 9.80274V17.0495C15.3585 17.0495 15.7621 16.8742 16.1648 16.6999C16.4724 16.5642 16.6644 16.273 16.6644 15.9225V7.27814C16.6644 6.73439 17.1063 6.26792 17.6441 6.26792H19.2949C19.8328 6.26792 20.2746 6.71461 20.2746 7.27814V14.4081C21.6952 13.3592 23.1549 12.0965 24.307 10.5811C24.6528 10.1344 24.7489 9.55112 24.5568 9.00738C22.4446 2.86881 15.8022 -0.395538 9.73493 1.74175C3.66766 3.87903 0.442464 10.6 2.55375 16.7395C2.78399 17.4387 3.0916 18.0993 3.45606 18.7401C3.74409 19.2452 4.28193 19.5364 4.85799 19.478C5.1656 19.4582 5.54964 19.4196 6.02876 19.3611C6.45102 19.3225 6.75862 18.9531 6.75862 18.5253L6.75769 12.2896Z" fill="white"/>
<path d="M6.59033 22.2322C11.8623 26.091 19.2358 24.9156 23.0675 19.6077C24.5267 17.5704 25.3238 15.1217 25.3238 12.615C25.3238 12.3404 25.304 12.0667 25.2851 11.7921C20.9868 18.2755 13.0297 21.3114 6.59033 22.2322Z" fill="white"/>
</g>
</g>
<defs>
<clipPath id="clip0_32_1288">
<rect width="25.0128" height="25.0128" fill="white" transform="translate(0.930176 0.466431)"/>
</clipPath>
<clipPath id="clip1_32_1288">
<rect width="25.0128" height="25.0128" fill="white" transform="translate(0.930176 0.466431)"/>
</clipPath>
</defs>
</svg>
