<svg width="35" height="35" viewBox="0 0 35 35" fill="none" xmlns="http://www.w3.org/2000/svg">
<g clip-path="url(#clip0_39_1606)">
<path d="M8.72819 16.8139C8.72819 16.0712 9.33166 15.4611 10.065 15.4611H12.3197C13.0543 15.4611 13.6832 16.0712 13.6832 16.8409V25.4375C13.9455 25.3577 14.26 25.2779 14.6279 25.1981C15.1257 25.0655 15.4936 24.615 15.4936 24.0834V13.4172C15.4936 12.6745 16.0971 12.0374 16.8572 12.0374H19.1119C19.8465 12.0374 20.4754 12.6475 20.4754 13.4172V23.315C20.4754 23.315 21.0267 23.0756 21.5767 22.8375C21.9968 22.6522 22.2591 22.2545 22.2591 21.7757V9.96902C22.2591 9.22636 22.8626 8.58924 23.5972 8.58924H25.8519C26.5865 8.58924 27.19 9.19933 27.19 9.96902V19.7073C29.1302 18.2747 31.124 16.55 32.6975 14.4803C33.1699 13.8702 33.301 13.0735 33.0387 12.3309C30.1538 3.94664 21.0814 -0.511899 12.7946 2.40726C4.50774 5.32642 0.102682 14.5061 2.98634 22.8916C3.3008 23.8466 3.72094 24.7489 4.21874 25.6241C4.61214 26.314 5.34674 26.7117 6.13353 26.6319C6.55367 26.6049 7.0782 26.5521 7.7326 26.4723C8.30933 26.4195 8.72946 25.915 8.72946 25.3306L8.72819 16.8139Z" fill="white"/>
<path d="M8.49976 30.3931C15.7004 35.6636 25.7713 34.0582 31.0047 26.8085C32.9977 24.0259 34.0865 20.6814 34.0865 17.2577C34.0865 16.8826 34.0594 16.5089 34.0336 16.1338C28.1629 24.9889 17.2948 29.1355 8.49976 30.3931Z" fill="white"/>
</g>
<defs>
<clipPath id="clip0_39_1606">
<rect width="34.1632" height="34.1632" fill="white" transform="translate(0.768799 0.665039)"/>
</clipPath>
</defs>
</svg>
