<svg width="330" height="720" viewBox="0 0 330 720" fill="none" xmlns="http://www.w3.org/2000/svg">
<mask id="mask0_80_214" style="mask-type:alpha" maskUnits="userSpaceOnUse" x="0" y="0" width="330" height="720">
<path d="M0 0H330V720H0V0Z" fill="black"/>
</mask>
<g mask="url(#mask0_80_214)">
<path d="M152.95 184.654C95.8832 138.343 27.2055 131.911 0 134.484V598.24C65.8072 605.958 152.093 553 187.011 525.557C243.05 489.022 306.329 481.175 330.964 481.818C401.912 481.304 455.638 455.875 473.632 443.226C555.891 380.448 635.151 373.759 664.499 378.261C692.261 381.349 840.584 372.687 911.276 367.97H1320V364.11H992.892L690.205 353.819C600.748 358.965 542.824 333.236 525.044 319.729C454.995 268.272 398.442 253.478 340.604 250.905C282.765 248.332 224.284 242.544 152.95 184.654Z" fill="url(#paint0_linear_80_214)"/>
<path d="M-0.564906 128.511L-6 129.025V134.484V598.24V603.577L-0.698949 604.199C33.8605 608.252 73.1138 596.388 107.595 580.536C142.097 564.674 172.691 544.413 190.507 530.44C245.261 494.831 307.14 487.198 330.807 487.816L330.907 487.819L331.008 487.818C403.219 487.294 458.126 461.461 477.083 448.134L477.179 448.067L477.272 447.995C558.301 386.156 635.933 379.949 663.589 384.192L663.712 384.211L663.835 384.224C671.255 385.049 686.157 385.066 704.972 384.617C723.955 384.164 747.362 383.221 772.076 382.035C821.419 379.668 876.099 376.329 911.476 373.97H1320H1326V367.97V364.11V358.11H1320H992.994L690.408 347.823L690.134 347.813L689.86 347.829C601.526 352.91 545.094 327.426 528.673 314.951L528.635 314.922L528.596 314.893C457.557 262.709 399.852 247.535 340.87 244.911C283.579 242.363 226.616 236.709 156.731 179.996C98.1662 132.469 27.8097 125.827 -0.564906 128.511Z" stroke="#8342D8" stroke-opacity="0.1" stroke-width="12"/>
</g>
<defs>
<linearGradient id="paint0_linear_80_214" x1="68.5" y1="391.5" x2="564" y2="403.5" gradientUnits="userSpaceOnUse">
<stop stop-color="#6B20CD"/>
<stop offset="1" stop-color="#69429C"/>
</linearGradient>
</defs>
</svg>
