<svg width="720" height="320" viewBox="0 0 720 320" fill="none" xmlns="http://www.w3.org/2000/svg">
<mask id="mask0_80_214" style="mask-type:alpha" maskUnits="userSpaceOnUse" x="0" y="0" width="720" height="320">
<path d="M720 0L720 320L-1.39876e-05 320L0 -3.14722e-05L720 0Z" fill="black"/>
</mask>
<g mask="url(#mask0_80_214)">
<path d="M535.346 148.315C581.657 92.9776 588.089 26.381 585.516 -2.1153e-08L121.76 -2.02926e-05C114.042 63.813 167 147.485 194.443 181.344C230.978 235.685 238.825 297.046 238.182 320.935C238.696 389.733 264.125 441.831 276.774 459.279C339.552 539.046 346.241 615.904 341.739 644.362C338.651 671.283 347.313 815.112 352.03 883.661L352.03 1280L355.889 1280L355.889 962.804L366.181 669.289C361.035 582.543 386.764 526.375 400.271 509.133C451.728 441.207 466.522 386.368 469.095 330.282C471.668 274.197 477.456 217.488 535.346 148.315Z" fill="url(#paint0_linear_80_214)"/>
<path d="M591.488 -0.582395L590.959 -6L585.516 -6L121.76 -6.00002L116.442 -6.00002L115.804 -0.720502C111.738 32.8941 123.638 71.0299 139.494 104.475C155.364 137.948 175.632 167.626 189.611 184.911C225.184 237.955 232.8 297.889 232.184 320.773L232.181 320.876L232.182 320.98C232.706 391.085 258.568 444.388 271.917 462.801L271.986 462.897L272.059 462.99C333.87 541.527 340.038 616.72 335.813 643.425L335.793 643.551L335.778 643.679C334.949 650.902 334.934 665.379 335.383 683.618C335.836 702.03 336.78 724.731 337.965 748.698C340.332 796.542 343.671 849.56 346.03 883.867L346.03 1280L346.03 1286L352.03 1286L355.889 1286L361.889 1286L361.889 1280L361.889 962.91L372.177 669.499L372.187 669.216L372.17 668.934C367.094 583.356 392.555 528.711 404.994 512.834L405.024 512.795L405.054 512.756C457.261 443.84 472.461 387.827 475.089 330.557C477.635 275.049 483.275 219.884 539.947 152.166C587.514 95.3272 594.179 27.017 591.488 -0.582395Z" stroke="#8342D8" stroke-opacity="0.1" stroke-width="12"/>
</g>
<defs>
<linearGradient id="paint0_linear_80_214" x1="328.5" y1="66.4242" x2="317.216" y2="546.926" gradientUnits="userSpaceOnUse">
<stop stop-color="#6B20CD"/>
<stop offset="1" stop-color="#69429C"/>
</linearGradient>
</defs>
</svg>
