<svg width="420" height="320" viewBox="0 0 420 320" fill="none" xmlns="http://www.w3.org/2000/svg">
<mask id="mask0_80_214" style="mask-type:alpha" maskUnits="userSpaceOnUse" x="0" y="0" width="420" height="320">
<path d="M420 0L420 320L-4.17854e-05 320L-3.05176e-05 -2.27902e-05L420 0Z" fill="black"/>
</mask>
<g mask="url(#mask0_80_214)">
<path d="M312.285 148.315C339.3 92.9776 343.052 26.381 341.551 -1.53177e-08L71.0269 -1.46946e-05C66.5244 63.813 97.4165 147.485 113.425 181.344C134.737 235.685 139.315 297.046 138.939 320.935C139.24 389.733 154.073 441.831 161.452 459.279C198.072 539.046 201.974 615.904 199.348 644.362C197.547 671.283 202.6 815.112 205.351 883.661L205.351 1280L207.602 1280L207.602 962.804L213.606 669.289C210.604 582.543 225.612 526.375 233.492 509.133C263.508 441.207 272.138 386.368 273.639 330.282C275.14 274.197 278.516 217.488 312.285 148.315Z" fill="url(#paint0_linear_80_214)"/>
<path d="M347.542 -0.340791L347.22 -6L341.551 -6L71.0269 -6.00001L65.4354 -6.00001L65.0418 -0.422311C62.7206 32.4763 69.5162 70.1095 78.7515 103.504C87.9743 136.853 99.7697 166.465 107.913 183.722C128.793 237.077 133.307 297.494 132.94 320.841L132.939 320.901L132.939 320.961C133.243 390.482 148.211 443.373 155.926 461.616L155.961 461.7L155.999 461.783C192.144 540.513 195.912 616.307 193.373 643.811L193.366 643.886L193.361 643.962C192.436 657.787 193.268 700.852 194.645 748.574C196.026 796.438 197.975 849.488 199.351 883.782L199.351 1280L199.351 1286L205.351 1286L207.602 1286L213.602 1286L213.602 1280L213.602 962.866L219.604 669.412L219.608 669.247L219.602 669.082C216.621 582.937 231.573 527.766 238.949 511.627L238.964 511.593L238.98 511.559C269.362 442.806 278.119 387.177 279.637 330.443C281.131 274.591 284.486 218.937 317.677 150.948C345.295 94.3735 349.077 26.651 347.542 -0.340791Z" stroke="#8342D8" stroke-opacity="0.1" stroke-width="12"/>
</g>
<defs>
<linearGradient id="paint0_linear_80_214" x1="191.625" y1="66.4242" x2="172.302" y2="546.413" gradientUnits="userSpaceOnUse">
<stop stop-color="#6B20CD"/>
<stop offset="1" stop-color="#69429C"/>
</linearGradient>
</defs>
</svg>
