<svg width="210" height="59" viewBox="0 0 210 59" fill="none" xmlns="http://www.w3.org/2000/svg">
<path fill-rule="evenodd" clip-rule="evenodd" d="M59 0.668594H3V56.6686H50.4908L59 49.0946V0.668594Z" fill="#6B20CD"/>
<path d="M32.4705 27.7306L39.9576 45.4574L47.5955 18.232L32.9387 5.46183L14.8002 15.0313L23.5687 53.1683L22.8812 19.0831L31.9387 14.2992L39.7883 20.9895L37.8306 35.1181L32.4705 27.7306Z" fill="white"/>
<path d="M73.025 20.897H84.041L86.606 23.462V28.7L85.391 29.942L87.443 32.021V37.07L84.716 39.797H73.025V20.897ZM82.853 29.213L84.068 27.998V24.299L82.853 23.111H75.563V29.213H82.853ZM83.474 37.583L84.905 36.179V32.777L83.474 31.346H75.563V37.583H83.474ZM90.691 20.519H93.202V39.797H90.691V20.519ZM96.8514 37.205V28.943L99.4434 26.351H106.625L109.19 28.943V37.205L106.625 39.797H99.4434L96.8514 37.205ZM105.464 37.61L106.679 36.422V29.726L105.464 28.538H100.577L99.3624 29.726V36.422L100.577 37.61H105.464ZM112.434 37.232V28.916L114.999 26.351H121.776L124.368 28.943V30.86H121.857V29.753L120.642 28.538H116.16L114.945 29.753V36.395L116.16 37.61H120.642L121.857 36.395V35.288H124.368V37.205L121.776 39.797H114.999L112.434 37.232ZM127.338 20.519H129.849V31.697H132.738L136.518 26.351H139.299L134.79 32.831L139.569 39.797H136.788L132.711 33.911H129.849V39.797H127.338V20.519Z" fill="white"/>
<path d="M139.567 20.897H142.24L147.559 36.692H147.613L152.932 20.897H155.605L148.909 39.797H146.263L139.567 20.897ZM155.861 37.232V28.943L158.453 26.351H165.5L168.092 28.943V33.857H158.372V36.449L159.56 37.637H164.393L165.581 36.476V35.558H168.065V37.232L165.527 39.797H158.426L155.861 37.232ZM165.581 31.886V29.699L164.366 28.511H159.587L158.372 29.699V31.886H165.581ZM171.477 26.351H173.88V28.7L176.202 26.351H179.793V28.538H176.769L173.988 31.346V39.797H171.477V26.351ZM181.006 37.448V35.774H183.517V36.773L184.435 37.664H189.187L190.105 36.773V34.991L189.187 34.046H183.382L181.114 31.778V28.7L183.436 26.351H189.997L192.346 28.7V30.374H189.835V29.375L188.917 28.484H184.543L183.625 29.375V31.049L184.543 31.994H190.294L192.616 34.316V37.448L190.294 39.797H183.355L181.006 37.448ZM195.438 37.232V28.943L198.03 26.351H205.077L207.669 28.943V33.857H197.949V36.449L199.137 37.637H203.97L205.158 36.476V35.558H207.642V37.232L205.104 39.797H198.003L195.438 37.232ZM205.158 31.886V29.699L203.943 28.511H199.164L197.949 29.699V31.886H205.158Z" fill="#595A5A"/>
</svg>
