<svg width="720" height="320" viewBox="0 0 720 320" fill="none" xmlns="http://www.w3.org/2000/svg">
<mask id="mask0_80_220" style="mask-type:alpha" maskUnits="userSpaceOnUse" x="0" y="0" width="720" height="320">
<path d="M720 0L720 320L-1.44248e-05 320L0 -3.05185e-05L720 0Z" fill="black"/>
</mask>
<g mask="url(#mask0_80_220)">
<path d="M535.346 -491.685C581.657 -547.022 588.089 -613.619 585.516 -640L121.76 -640C114.042 -576.187 167 -492.515 194.443 -458.656C230.978 -404.315 238.825 -342.954 238.182 -319.065C238.696 -250.267 264.125 -198.169 276.774 -180.721C339.552 -100.954 346.241 -24.0961 341.739 4.36223C338.651 31.2834 347.313 175.112 352.03 243.661L352.03 640L355.889 640L355.889 322.804L366.181 29.2892C361.035 -57.4567 386.764 -113.625 400.271 -130.867C451.728 -198.793 466.522 -253.632 469.095 -309.718C471.668 -365.803 477.456 -422.512 535.346 -491.685Z" fill="url(#paint0_linear_80_220)"/>
<path d="M591.488 -640.582L590.959 -646L585.516 -646L121.76 -646L116.442 -646L115.804 -640.721C111.738 -607.106 123.638 -568.97 139.494 -535.525C155.364 -502.052 175.632 -472.374 189.611 -455.089C225.184 -402.045 232.8 -342.111 232.184 -319.227L232.181 -319.124L232.182 -319.02C232.706 -248.915 258.568 -195.612 271.917 -177.199L271.986 -177.103L272.059 -177.01C333.87 -98.4726 340.038 -23.2804 335.813 3.42461L335.793 3.55126L335.778 3.67864C334.949 10.9023 334.934 25.3793 335.383 43.618C335.836 62.0303 336.78 84.7307 337.965 108.698C340.332 156.542 343.671 209.56 346.03 243.867L346.03 640L346.03 646L352.03 646L355.889 646L361.889 646L361.889 640L361.889 322.91L372.177 29.4994L372.187 29.2165L372.17 28.9339C367.094 -56.6437 392.555 -111.289 404.994 -127.166L405.024 -127.205L405.054 -127.244C457.261 -196.16 472.461 -252.173 475.089 -309.443C477.635 -364.951 483.275 -420.116 539.947 -487.834C587.514 -544.673 594.179 -612.983 591.488 -640.582Z" stroke="#8342D8" stroke-opacity="0.1" stroke-width="12"/>
</g>
<defs>
<linearGradient id="paint0_linear_80_220" x1="328.5" y1="-573.576" x2="317.216" y2="-93.0741" gradientUnits="userSpaceOnUse">
<stop stop-color="#6B20CD"/>
<stop offset="1" stop-color="#69429C"/>
</linearGradient>
</defs>
</svg>
