<svg width="420" height="320" viewBox="0 0 420 320" fill="none" xmlns="http://www.w3.org/2000/svg">
<mask id="mask0_80_220" style="mask-type:alpha" maskUnits="userSpaceOnUse" x="0" y="0" width="420" height="320">
<path d="M420 0L420 320L-4.21375e-05 320L-3.05176e-05 -2.20996e-05L420 0Z" fill="black"/>
</mask>
<g mask="url(#mask0_80_220)">
<path d="M312.285 -491.685C339.3 -547.022 343.052 -613.619 341.551 -640L71.0269 -640C66.5244 -576.187 97.4165 -492.515 113.425 -458.656C134.737 -404.315 139.315 -342.954 138.939 -319.065C139.24 -250.267 154.073 -198.169 161.452 -180.721C198.072 -100.954 201.974 -24.0961 199.348 4.36224C197.547 31.2834 202.6 175.112 205.351 243.661L205.351 640L207.602 640L207.602 322.804L213.606 29.2892C210.604 -57.4567 225.612 -113.625 233.492 -130.867C263.508 -198.793 272.138 -253.632 273.639 -309.718C275.14 -365.803 278.516 -422.512 312.285 -491.685Z" fill="url(#paint0_linear_80_220)"/>
<path d="M347.542 -640.341L347.22 -646L341.551 -646L71.0269 -646L65.4354 -646L65.0418 -640.422C62.7206 -607.524 69.5162 -569.89 78.7515 -536.496C87.9743 -503.147 99.7697 -473.535 107.913 -456.278C128.793 -402.923 133.307 -342.506 132.94 -319.159L132.939 -319.099L132.939 -319.039C133.243 -249.518 148.211 -196.627 155.926 -178.384L155.961 -178.3L155.999 -178.217C192.144 -99.4865 195.912 -23.6932 193.373 3.81084L193.366 3.88622L193.361 3.96172C192.436 17.7868 193.268 60.8519 194.645 108.574C196.026 156.438 197.975 209.488 199.351 243.782L199.351 640L199.351 646L205.351 646L207.602 646L213.602 646L213.602 640L213.602 322.866L219.604 29.4119L219.608 29.2468L219.602 29.0817C216.621 -57.0628 231.573 -112.234 238.949 -128.373L238.964 -128.407L238.98 -128.441C269.362 -197.194 278.119 -252.823 279.637 -309.557C281.131 -365.409 284.486 -421.063 317.677 -489.052C345.295 -545.627 349.077 -613.349 347.542 -640.341Z" stroke="#8342D8" stroke-opacity="0.1" stroke-width="12"/>
</g>
<defs>
<linearGradient id="paint0_linear_80_220" x1="191.625" y1="-573.576" x2="172.302" y2="-93.5871" gradientUnits="userSpaceOnUse">
<stop stop-color="#6B20CD"/>
<stop offset="1" stop-color="#69429C"/>
</linearGradient>
</defs>
</svg>
