<svg width="330" height="720" viewBox="0 0 330 720" fill="none" xmlns="http://www.w3.org/2000/svg">
<mask id="mask0_80_220" style="mask-type:alpha" maskUnits="userSpaceOnUse" x="0" y="0" width="330" height="720">
<path d="M0 0H330V720H0V0Z" fill="black"/>
</mask>
<g mask="url(#mask0_80_220)">
<path d="M-507.05 184.654C-564.117 138.343 -632.795 131.911 -660 134.484V598.24C-594.193 605.958 -507.907 553 -472.989 525.557C-416.95 489.022 -353.671 481.175 -329.036 481.818C-258.088 481.304 -204.362 455.875 -186.368 443.226C-104.109 380.448 -24.8491 373.759 4.4986 378.261C32.261 381.349 180.584 372.687 251.276 367.97H660V364.11H332.892L30.2045 353.819C-59.2521 358.965 -117.176 333.236 -134.956 319.729C-205.005 268.272 -261.558 253.478 -319.396 250.905C-377.235 248.332 -435.716 242.544 -507.05 184.654Z" fill="url(#paint0_linear_80_220)"/>
<path d="M-660.565 128.511L-666 129.025V134.484V598.24V603.577L-660.699 604.199C-626.139 608.252 -586.886 596.388 -552.405 580.536C-517.903 564.674 -487.309 544.413 -469.493 530.44C-414.739 494.831 -352.86 487.198 -329.193 487.816L-329.093 487.819L-328.992 487.818C-256.781 487.294 -201.874 461.461 -182.917 448.134L-182.821 448.067L-182.728 447.995C-101.699 386.156 -24.0671 379.949 3.58875 384.192L3.71173 384.211L3.83545 384.224C11.2548 385.049 26.1572 385.066 44.972 384.617C63.9553 384.164 87.3616 383.221 112.076 382.035C161.419 379.668 216.099 376.329 251.476 373.97H660H666V367.97V364.11V358.11H660H332.994L30.4084 347.823L30.134 347.813L29.86 347.829C-58.4738 352.91 -114.906 327.426 -131.327 314.951L-131.365 314.922L-131.404 314.893C-202.443 262.709 -260.148 247.535 -319.13 244.911C-376.421 242.363 -433.384 236.709 -503.269 179.996C-561.834 132.469 -632.19 125.827 -660.565 128.511Z" stroke="#8342D8" stroke-opacity="0.1" stroke-width="12"/>
</g>
<defs>
<linearGradient id="paint0_linear_80_220" x1="-591.5" y1="391.5" x2="-96" y2="403.5" gradientUnits="userSpaceOnUse">
<stop stop-color="#6B20CD"/>
<stop offset="1" stop-color="#69429C"/>
</linearGradient>
</defs>
</svg>
