<svg width="420" height="320" viewBox="0 0 420 320" fill="none" xmlns="http://www.w3.org/2000/svg">
<mask id="mask0_80_217" style="mask-type:alpha" maskUnits="userSpaceOnUse" x="0" y="0" width="420" height="320">
<mask id="path-1-inside-1_80_217" fill="white">
<path d="M420 0L420 320L-4.21375e-05 320L-3.05176e-05 -2.20996e-05L420 0Z"/>
</mask>
<path d="M420 0L420 320L-4.21375e-05 320L-3.05176e-05 -2.20996e-05L420 0Z" fill="black"/>
<path d="M419 -5.26181e-08L419 320L421 320L421 5.26181e-08L419 -5.26181e-08Z" fill="#6B20CD" mask="url(#path-1-inside-1_80_217)"/>
</mask>
<g mask="url(#mask0_80_217)">
<path d="M312.285 -171.685C339.3 -227.022 343.052 -293.619 341.551 -320L71.0269 -320C66.5244 -256.187 97.4165 -172.515 113.425 -138.656C134.737 -84.3155 139.315 -22.9536 138.939 0.934773C139.24 69.7332 154.073 121.831 161.452 139.279C198.072 219.046 201.974 295.904 199.348 324.362C197.547 351.283 202.6 495.112 205.351 563.661L205.351 960L207.602 960L207.602 642.804L213.606 349.289C210.604 262.543 225.612 206.375 233.492 189.133C263.508 121.207 272.138 66.3681 273.639 10.2824C275.14 -45.8033 278.516 -102.512 312.285 -171.685Z" fill="url(#paint0_linear_80_217)"/>
<path d="M347.542 -320.341L347.22 -326L341.551 -326L71.0269 -326L65.4354 -326L65.0418 -320.422C62.7206 -287.524 69.5162 -249.89 78.7515 -216.496C87.9743 -183.147 99.7697 -153.535 107.913 -136.278C128.793 -82.9233 133.307 -22.5059 132.94 0.840535L132.939 0.900746L132.939 0.960957C133.243 70.4819 148.211 123.373 155.926 141.616L155.961 141.7L155.999 141.783C192.144 220.513 195.912 296.307 193.373 323.811L193.366 323.886L193.361 323.962C192.436 337.787 193.268 380.852 194.645 428.574C196.026 476.438 197.975 529.488 199.351 563.782L199.351 960L199.351 966L205.351 966L207.602 966L213.602 966L213.602 960L213.602 642.866L219.604 349.412L219.608 349.247L219.602 349.082C216.621 262.937 231.573 207.766 238.949 191.627L238.964 191.593L238.98 191.559C269.362 122.806 278.119 67.1768 279.637 10.4429C281.131 -45.4087 284.486 -101.063 317.677 -169.052C345.295 -225.627 349.077 -293.349 347.542 -320.341Z" stroke="#8342D8" stroke-opacity="0.1" stroke-width="12"/>
</g>
<defs>
<linearGradient id="paint0_linear_80_217" x1="191.625" y1="-253.576" x2="172.302" y2="226.413" gradientUnits="userSpaceOnUse">
<stop stop-color="#6B20CD"/>
<stop offset="1" stop-color="#69429C"/>
</linearGradient>
</defs>
</svg>
