<svg width="720" height="320" viewBox="0 0 720 320" fill="none" xmlns="http://www.w3.org/2000/svg">
<mask id="mask0_80_217" style="mask-type:alpha" maskUnits="userSpaceOnUse" x="0" y="0" width="720" height="320">
<mask id="path-1-inside-1_80_217" fill="white">
<path d="M720 0L720 320L-1.44248e-05 320L0 -3.05185e-05L720 0Z"/>
</mask>
<path d="M720 0L720 320L-1.44248e-05 320L0 -3.05185e-05L720 0Z" fill="black"/>
<path d="M719 -4.23868e-08L719 320L721 320L721 4.23868e-08L719 -4.23868e-08Z" fill="#6B20CD" mask="url(#path-1-inside-1_80_217)"/>
</mask>
<g mask="url(#mask0_80_217)">
<path d="M535.346 -171.685C581.657 -227.022 588.089 -293.619 585.516 -320L121.76 -320C114.042 -256.187 167 -172.515 194.443 -138.656C230.978 -84.3155 238.825 -22.9536 238.182 0.934769C238.696 69.7332 264.125 121.831 276.774 139.279C339.552 219.046 346.241 295.904 341.739 324.362C338.651 351.283 347.313 495.112 352.03 563.661L352.03 960L355.889 960L355.889 642.804L366.181 349.289C361.035 262.543 386.764 206.375 400.271 189.133C451.728 121.207 466.522 66.3681 469.095 10.2824C471.668 -45.8033 477.456 -102.512 535.346 -171.685Z" fill="url(#paint0_linear_80_217)"/>
<path d="M591.488 -320.582L590.959 -326L585.516 -326L121.76 -326L116.442 -326L115.804 -320.721C111.738 -287.106 123.638 -248.97 139.494 -215.525C155.364 -182.052 175.632 -152.374 189.611 -135.089C225.184 -82.0446 232.8 -22.1112 232.184 0.77327L232.181 0.87645L232.182 0.97966C232.706 71.0852 258.568 124.388 271.917 142.801L271.986 142.897L272.059 142.99C333.87 221.527 340.038 296.72 335.813 323.425L335.793 323.551L335.778 323.679C334.949 330.902 334.934 345.379 335.383 363.618C335.836 382.03 336.78 404.731 337.965 428.698C340.332 476.542 343.671 529.56 346.03 563.867L346.03 960L346.03 966L352.03 966L355.889 966L361.889 966L361.889 960L361.889 642.91L372.177 349.499L372.187 349.216L372.17 348.934C367.094 263.356 392.555 208.711 404.994 192.834L405.024 192.795L405.054 192.756C457.261 123.84 472.461 67.8268 475.089 10.5573C477.635 -44.9515 483.275 -100.116 539.947 -167.834C587.514 -224.673 594.179 -292.983 591.488 -320.582Z" stroke="#8342D8" stroke-opacity="0.1" stroke-width="12"/>
</g>
<defs>
<linearGradient id="paint0_linear_80_217" x1="328.5" y1="-253.576" x2="317.216" y2="226.926" gradientUnits="userSpaceOnUse">
<stop stop-color="#6B20CD"/>
<stop offset="1" stop-color="#69429C"/>
</linearGradient>
</defs>
</svg>
