<svg width="330" height="720" viewBox="0 0 330 720" fill="none" xmlns="http://www.w3.org/2000/svg">
<mask id="mask0_80_217" style="mask-type:alpha" maskUnits="userSpaceOnUse" x="0" y="0" width="330" height="720">
<mask id="path-1-inside-1_80_217" fill="white">
<path d="M0 0H330V720H0V0Z"/>
</mask>
<path d="M0 0H330V720H0V0Z" fill="black"/>
<path d="M0 1H330V-1H0V1Z" fill="#6B20CD" mask="url(#path-1-inside-1_80_217)"/>
</mask>
<g mask="url(#mask0_80_217)">
<path d="M-177.05 184.654C-234.117 138.343 -302.795 131.911 -330 134.484V598.24C-264.193 605.958 -177.907 553 -142.989 525.557C-86.9503 489.022 -23.6709 481.175 0.963989 481.818C71.9124 481.304 125.638 455.875 143.632 443.226C225.891 380.448 305.151 373.759 334.499 378.261C362.261 381.349 510.584 372.687 581.276 367.97H990V364.11H662.892L360.205 353.819C270.748 358.965 212.824 333.236 195.044 319.729C124.995 268.272 68.4421 253.478 10.6037 250.905C-47.2346 248.332 -105.716 242.544 -177.05 184.654Z" fill="url(#paint0_linear_80_217)"/>
<path d="M-330.565 128.511L-336 129.025V134.484V598.24V603.577L-330.699 604.199C-296.139 608.252 -256.886 596.388 -222.405 580.536C-187.903 564.674 -157.309 544.413 -139.493 530.44C-84.7395 494.831 -22.8597 487.198 0.807373 487.816L0.90744 487.819L1.00751 487.818C73.2188 487.294 128.126 461.461 147.083 448.134L147.179 448.067L147.272 447.995C228.301 386.156 305.933 379.949 333.589 384.192L333.712 384.211L333.835 384.224C341.255 385.049 356.157 385.066 374.972 384.617C393.955 384.164 417.362 383.221 442.076 382.035C491.419 379.668 546.099 376.329 581.476 373.97H990H996V367.97V364.11V358.11H990H662.994L360.408 347.823L360.134 347.813L359.86 347.829C271.526 352.91 215.094 327.426 198.673 314.951L198.635 314.922L198.596 314.893C127.557 262.709 69.852 247.535 10.8704 244.911C-46.4209 242.363 -103.384 236.709 -173.269 179.996C-231.834 132.469 -302.19 125.827 -330.565 128.511Z" stroke="#8342D8" stroke-opacity="0.1" stroke-width="12"/>
</g>
<defs>
<linearGradient id="paint0_linear_80_217" x1="-261.5" y1="391.5" x2="234" y2="403.5" gradientUnits="userSpaceOnUse">
<stop stop-color="#6B20CD"/>
<stop offset="1" stop-color="#69429C"/>
</linearGradient>
</defs>
</svg>
